<svg aria-hidden="true" style="position: absolute; width: 0; height: 0; overflow: hidden;" version="1.1" xmlns="http://www.w3.org/2000/svg" xmlns:xlink="http://www.w3.org/1999/xlink">
<defs>
<!-- <symbol id="icon-iPhone" viewBox="0 0 32 32">
<path  d="M13.333 5.333h-0.667c0 0.368 0.298 0.667 0.667 0.667v-0.667zM18.667 5.333v0.667c0.368 0 0.667-0.298 0.667-0.667h-0.667zM23.333 6.667v18.667h1.333v-18.667h-1.333zM21.333 27.333h-10.667v1.333h10.667v-1.333zM8.667 25.333v-18.667h-1.333v18.667h1.333zM10.667 4.667h2.667v-1.333h-2.667v1.333zM12.667 4v1.333h1.333v-1.333h-1.333zM13.333 6h5.333v-1.333h-5.333v1.333zM13.333 4.667h5.333v-1.333h-5.333v1.333zM18.667 4.667h2.667v-1.333h-2.667v1.333zM19.333 5.333v-1.333h-1.333v1.333h1.333zM10.667 27.333c-1.105 0-2-0.895-2-2h-1.333c0 1.841 1.492 3.333 3.333 3.333v-1.333zM23.333 25.333c0 1.105-0.895 2-2 2v1.333c1.841 0 3.333-1.492 3.333-3.333h-1.333zM24.667 6.667c0-1.841-1.492-3.333-3.333-3.333v1.333c1.105 0 2 0.895 2 2h1.333zM8.667 6.667c0-1.105 0.895-2 2-2v-1.333c-1.841 0-3.333 1.492-3.333 3.333h1.333z"></path>
</symbol> -->
<!-- <symbol id="icon-Mail" viewBox="0 0 32 32">
<path  d="M4 9.333v13.333c0 1.473 1.194 2.667 2.667 2.667h18.667c1.473 0 2.667-1.194 2.667-2.667v-13.333M4 9.333v0c0-1.473 1.194-2.667 2.667-2.667h18.667c1.473 0 2.667 1.194 2.667 2.667v0M4 9.333l10.521 7.014c0.896 0.597 2.063 0.597 2.958 0l10.521-7.014"></path>
</symbol> -->
<!-- <symbol id="icon-Settings" viewBox="0 0 32 32">
<path d="M18.667 5.749v0.544c0 0.451 0.301 0.844 0.721 1.008v0c0.404 0.157 0.866 0.082 1.173-0.224l0.425-0.425c0.728-0.728 1.909-0.728 2.637 0l1.287 1.287c0.644 0.644 0.644 1.688 0 2.332l-0.059 0.059c-0.501 0.501-0.586 1.27-0.301 1.919v0c0.274 0.624 0.866 1.084 1.548 1.084h0.154c0.966 0 1.749 0.783 1.749 1.749v1.835c0 0.966-0.783 1.749-1.749 1.749h-0.343c-0.57 0-1.066 0.383-1.285 0.91v0c-0.219 0.527-0.135 1.141 0.268 1.544l0.116 0.116c0.589 0.589 0.589 1.545 0 2.135l-1.637 1.637c-0.589 0.589-1.545 0.589-2.135 0l-0.116-0.116c-0.403-0.404-1.017-0.487-1.544-0.268v0c-0.527 0.219-0.91 0.714-0.91 1.285v0.343c0 0.966-0.783 1.749-1.749 1.749h-1.835c-0.966 0-1.749-0.783-1.749-1.749v-0.154c0-0.682-0.46-1.273-1.084-1.548v0c-0.649-0.285-1.418-0.201-1.919 0.301l-0.059 0.059c-0.644 0.644-1.688 0.644-2.332 0l-1.286-1.286c-0.728-0.728-0.728-1.909 0-2.637l0.425-0.425c0.306-0.307 0.381-0.769 0.224-1.173v0c-0.164-0.42-0.557-0.721-1.008-0.721h-0.544c-0.966 0-1.749-0.783-1.749-1.749v-1.835c0-0.966 0.783-1.749 1.749-1.749h0.343c0.57 0 1.066-0.383 1.285-0.91v0c0.219-0.527 0.135-1.141-0.268-1.544l-0.369-0.369c-0.777-0.777-0.777-2.036 0-2.812l0.959-0.959c0.777-0.777 2.036-0.777 2.812 0l0.369 0.369c0.403 0.404 1.017 0.487 1.544 0.268v0c0.527-0.219 0.91-0.714 0.91-1.285v-0.343c0-0.966 0.783-1.749 1.749-1.749h1.835c0.966 0 1.749 0.783 1.749 1.749zM16 20c2.209 0 4-1.791 4-4s-1.791-4-4-4c-2.209 0-4 1.791-4 4s1.791 4 4 4z"></path>
</symbol> -->
<!-- <symbol id="icon-SizeMinimize" viewBox="0 0 32 32">
<path d="M28.471 7.138c0.26-0.26 0.26-0.682 0-0.943s-0.683-0.26-0.943 0l0.943 0.943zM25.333 9.333l-0.471 0.471c0.26 0.26 0.683 0.26 0.943 0l-0.471-0.471zM23.138 6.195c-0.26-0.26-0.683-0.26-0.943 0s-0.26 0.682 0 0.943l0.943-0.943zM6 25.333c0 0.368 0.298 0.667 0.667 0.667s0.667-0.299 0.667-0.667h-1.333zM16.667 25.333c0 0.368 0.299 0.667 0.667 0.667s0.667-0.299 0.667-0.667h-1.333zM27.529 6.195l-2.667 2.667 0.943 0.943 2.667-2.667-0.943-0.943zM25.805 8.862l-2.667-2.667-0.943 0.943 2.667 2.667 0.943-0.943zM6 12v4h1.333v-4h-1.333zM6 16v9.333h1.333v-9.333h-1.333zM16.667 12v4h1.333v-4h-1.333zM16.667 16v9.333h1.333v-9.333h-1.333zM6.667 16.667h10.667v-1.333h-10.667v1.333zM12 7.333c2.577 0 4.667 2.089 4.667 4.667h1.333c0-3.314-2.686-6-6-6v1.333zM12 6c-3.314 0-6 2.686-6 6h1.333c0-2.577 2.089-4.667 4.667-4.667v-1.333z"></path>
</symbol> -->
<symbol id="icon-User" viewBox="0 0 32 32">
<path  d="M26.667 24c0 2.209-4.776 4-10.667 4s-10.667-1.791-10.667-4c0-2.209 4.776-4 10.667-4s10.667 1.791 10.667 4z"></path>
<path  d="M21.333 9.333c0 2.946-2.388 5.333-5.333 5.333s-5.333-2.388-5.333-5.333 2.388-5.333 5.333-5.333c2.945 0 5.333 2.388 5.333 5.333z"></path>
</symbol>
<symbol id="icon-arrow-right" viewBox="0 0 32 32">
<path d="M31 16l-15-15v9h-16v12h16v9z"></path>
</symbol>
</defs>
</svg>
<!-- aaaaaaaaaaaaaaaaaaaaaaaaaaaaaaaaaa -->
<svg aria-hidden="true" style="position: absolute; width: 0; height: 0; overflow: hidden;" version="1.1" xmlns="http://www.w3.org/2000/svg" xmlns:xlink="http://www.w3.org/1999/xlink">
<defs>

<symbol id="icon-file-empty" viewBox="0 0 32 32">
<path d="M28.681 7.159c-0.694-0.947-1.662-2.053-2.724-3.116s-2.169-2.030-3.116-2.724c-1.612-1.182-2.393-1.319-2.841-1.319h-15.5c-1.378 0-2.5 1.121-2.5 2.5v27c0 1.378 1.122 2.5 2.5 2.5h23c1.378 0 2.5-1.122 2.5-2.5v-19.5c0-0.448-0.137-1.23-1.319-2.841zM24.543 5.457c0.959 0.959 1.712 1.825 2.268 2.543h-4.811v-4.811c0.718 0.556 1.584 1.309 2.543 2.268zM28 29.5c0 0.271-0.229 0.5-0.5 0.5h-23c-0.271 0-0.5-0.229-0.5-0.5v-27c0-0.271 0.229-0.5 0.5-0.5 0 0 15.499-0 15.5 0v7c0 0.552 0.448 1 1 1h7v19.5z"></path>
</symbol>
<svg xmlns="http://www.w3.org/2000/svg" width="20" height="16" fill="currentColor" class="bi bi-instagram" viewBox="0 0 16 16">
  <path d="M8 0C5.829 0 5.556.01 4.703.048 3.85.088 3.269.222 2.76.42a3.917 3.917 0 0 0-1.417.923A3.927 3.927 0 0 0 .42 2.76C.222 3.268.087 3.85.048 4.7.01 5.555 0 5.827 0 8.001c0 2.172.01 2.444.048 3.297.04.852.174 1.433.372 1.942.205.526.478.972.923 1.417.444.445.89.719 1.416.923.51.198 1.09.333 1.942.372C5.555 15.99 5.827 16 8 16s2.444-.01 3.298-.048c.851-.04 1.434-.174 1.943-.372a3.916 3.916 0 0 0 1.416-.923c.445-.445.718-.891.923-1.417.197-.509.332-1.09.372-1.942C15.99 10.445 16 10.173 16 8s-.01-2.445-.048-3.299c-.04-.851-.175-1.433-.372-1.941a3.926 3.926 0 0 0-.923-1.417A3.911 3.911 0 0 0 13.24.42c-.51-.198-1.092-.333-1.943-.372C10.443.01 10.172 0 7.998 0h.003zm-.717 1.442h.718c2.136 0 2.389.007 3.232.046.78.035 1.204.166 1.486.275.373.145.64.319.92.599.28.28.453.546.598.92.11.281.24.705.275 1.485.039.843.047 1.096.047 3.231s-.008 2.389-.047 3.232c-.035.78-.166 1.203-.275 1.485a2.47 2.47 0 0 1-.599.919c-.28.28-.546.453-.92.598-.28.11-.704.24-1.485.276-.843.038-1.096.047-3.232.047s-2.39-.009-3.233-.047c-.78-.036-1.203-.166-1.485-.276a2.478 2.478 0 0 1-.92-.598 2.48 2.48 0 0 1-.6-.92c-.109-.281-.24-.705-.275-1.485-.038-.843-.046-1.096-.046-3.233 0-2.136.008-2.388.046-3.231.036-.78.166-1.204.276-1.486.145-.373.319-.64.599-.92.28-.28.546-.453.92-.598.282-.11.705-.24 1.485-.276.738-.034 1.024-.044 2.515-.045v.002zm4.988 1.328a.96.96 0 1 0 0 1.92.96.96 0 0 0 0-1.92zm-4.27 1.122a4.109 4.109 0 1 0 0 8.217 4.109 4.109 0 0 0 0-8.217zm0 1.441a2.667 2.667 0 1 1 0 5.334 2.667 2.667 0 0 1 0-5.334z"/>
</svg>
<symbol id="icon-folder-open" viewBox="0 0 32 32">
<path d="M26 30l6-16h-26l-6 16zM4 12l-4 18v-26h9l4 4h13v4z"></path>
</symbol>
<symbol id="icon-user" viewBox="0 0 32 32">
<path d="M18 22.082v-1.649c2.203-1.241 4-4.337 4-7.432 0-4.971 0-9-6-9s-6 4.029-6 9c0 3.096 1.797 6.191 4 7.432v1.649c-6.784 0.555-12 3.888-12 7.918h28c0-4.030-5.216-7.364-12-7.918z"></path>
</symbol>
<svg xmlns="http://www.w3.org/2000/svg" width="24" height="24" viewBox="0 0 24 24"><path d="M15.233 5.488c-.843-.038-1.097-.046-3.233-.046s-2.389.008-3.232.046c-2.17.099-3.181 1.127-3.279 3.279-.039.844-.048 1.097-.048 3.233s.009 2.389.047 3.233c.099 2.148 1.106 3.18 3.279 3.279.843.038 1.097.047 3.233.047 2.137 0 2.39-.008 3.233-.046 2.17-.099 3.18-1.129 3.279-3.279.038-.844.046-1.097.046-3.233s-.008-2.389-.046-3.232c-.099-2.153-1.111-3.182-3.279-3.281zm-3.233 10.62c-2.269 0-4.108-1.839-4.108-4.108 0-2.269 1.84-4.108 4.108-4.108s4.108 1.839 4.108 4.108c0 2.269-1.839 4.108-4.108 4.108zm4.271-7.418c-.53 0-.96-.43-.96-.96s.43-.96.96-.96.96.43.96.96-.43.96-.96.96zm-1.604 3.31c0 1.473-1.194 2.667-2.667 2.667s-2.667-1.194-2.667-2.667c0-1.473 1.194-2.667 2.667-2.667s2.667 1.194 2.667 2.667zm4.333-12h-14c-2.761 0-5 2.239-5 5v14c0 2.761 2.239 5 5 5h14c2.762 0 5-2.239 5-5v-14c0-2.761-2.238-5-5-5zm.952 15.298c-.132 2.909-1.751 4.521-4.653 4.654-.854.039-1.126.048-3.299.048s-2.444-.009-3.298-.048c-2.908-.133-4.52-1.748-4.654-4.654-.039-.853-.048-1.125-.048-3.298 0-2.172.009-2.445.048-3.298.134-2.908 1.748-4.521 4.654-4.653.854-.04 1.125-.049 3.298-.049s2.445.009 3.299.048c2.908.133 4.523 1.751 4.653 4.653.039.854.048 1.127.048 3.299 0 2.173-.009 2.445-.048 3.298z"/></svg>

<svg xmlns="http://www.w3.org/2000/svg" width="24" height="24" viewBox="0 0 24 24"><path d="M11.984 16.815c2.596 0 4.706-2.111 4.706-4.707 0-1.409-.623-2.674-1.606-3.538-.346-.303-.735-.556-1.158-.748-.593-.27-1.249-.421-1.941-.421s-1.349.151-1.941.421c-.424.194-.814.447-1.158.749-.985.864-1.608 2.129-1.608 3.538 0 2.595 2.112 4.706 4.706 4.706zm.016-8.184c1.921 0 3.479 1.557 3.479 3.478 0 1.921-1.558 3.479-3.479 3.479s-3.479-1.557-3.479-3.479c0-1.921 1.558-3.478 3.479-3.478zm5.223.369h6.777v10.278c0 2.608-2.114 4.722-4.722 4.722h-14.493c-2.608 0-4.785-2.114-4.785-4.722v-10.278h6.747c-.544.913-.872 1.969-.872 3.109 0 3.374 2.735 6.109 6.109 6.109s6.109-2.735 6.109-6.109c.001-1.14-.327-2.196-.87-3.109zm2.055-9h-12.278v5h-1v-5h-1v5h-1v-4.923c-.346.057-.682.143-1 .27v4.653h-1v-4.102c-1.202.857-2 2.246-2 3.824v3.278h7.473c1.167-1.282 2.798-2 4.511-2 1.722 0 3.351.725 4.511 2h7.505v-3.278c0-2.608-2.114-4.722-4.722-4.722zm2.722 5.265c0 .406-.333.735-.745.735h-2.511c-.411 0-.744-.329-.744-.735v-2.53c0-.406.333-.735.744-.735h2.511c.412 0 .745.329.745.735v2.53z"/></svg>


</defs>
</svg>

